<svg xmlns="http://www.w3.org/2000/svg" height="1200" width="1600" version="1.1" xmlns:xlink="http://www.w3.org/1999/xlink" xmlns:svgjs="http://svgjs.com/svgjs"><rect fill="#f3ebe9" width="1600" height="1200"></rect><g><path d="M1106.93 341.49C1195.92 445.49 1253.7 581.28 1228.27 700.89 1202.85 819.91 1094.22 922.76 965.37 985.17 836.52 1048.15 688.02 1070.68 582.28 1015.79 477.12 960.32 415.29 826.27 384.09 686.44 352.89 546.61 351.74 400.42 422.23 300.46 493.3 200.5 636.02 147.34 767.18 156.01 898.34 165.26 1017.95 237.48 1106.93 341.49Z" fill="#efdcd7" opacity="1" stroke-width="4" stroke="none"></path></g><g><path d="M467.23 310.29L1132.77 313.1C1155.25 313.1 1161.41 315.46 1161.41 337.94L1173.47 370.66V862.06C1173.47 884.54 1155.25 902.76 1132.77 902.76H467.23C444.75 902.76 426.53 884.54 426.53 862.06V370.66L437.5 337.94C437.5 315.46 444.75 310.29 467.23 310.29Z" fill="#ffffff" opacity="1" stroke-width="4" stroke="none"></path><path d="M467.23 297.24H1132.77C1155.25 297.24 1173.47 315.46 1173.47 337.94V370.66H426.53V337.94C426.53 315.46 444.75 297.24 467.23 297.24Z" fill="#d5d5d5" opacity="1" stroke-width="4" stroke="none"></path><path d="M483.91 347.55C490.92 347.55 496.6 341.86 496.6 334.86 496.6 327.85 490.92 322.17 483.91 322.17 476.91 322.17 471.22 327.85 471.22 334.86 471.22 341.86 476.91 347.55 483.91 347.55Z" fill="#ffffff" opacity="1" stroke-width="4" stroke="none"></path><path d="M525.16 347.55C532.16 347.55 537.85 341.86 537.85 334.86 537.85 327.85 532.16 322.17 525.16 322.17 518.15 322.17 512.47 327.85 512.47 334.86 512.47 341.86 518.15 347.55 525.16 347.55Z" fill="#ffffff" opacity="1" stroke-width="4" stroke="none"></path><path d="M566.4 347.55C573.41 347.55 579.09 341.86 579.09 334.86 579.09 327.85 573.41 322.17 566.4 322.17 559.39 322.17 553.71 327.85 553.71 334.86 553.71 341.86 559.39 347.55 566.4 347.55Z" fill="#ffffff" opacity="1" stroke-width="4" stroke="none"></path><path d="M706.27 334.58H893.82" stroke="#ffffff" stroke-width="4" stroke-linecap="round" stroke-linejoin="round" opacity="1" fill="none"></path></g><g><path d="M887.71 758.02L970.71 744.58C986.5 741.55 997.25 727.1 994.57 711.31L961.63 509.68C958.95 493.89 944.5 483.14 928.7 485.83L627.61 534.55C611.82 537.24 601.4 552.03 603.75 567.48L634.67 757.01 636.69 769.11C639.37 784.9 653.82 795.65 669.62 792.96L806.38 771.12 887.71 758.02Z" fill="#61ccff" opacity="1" stroke-width="4" stroke="none"></path><path d="M966.51 537.81L608.26 595.95 617.4 652.33 975.65 594.2 966.51 537.81Z" fill="#1a1a1a" opacity="1" stroke-width="4" stroke="none"></path><path d="M689.78 685.1L739.18 677.03C749.26 675.35 758.67 682.41 760.35 692.49L763.71 712.32C765.39 722.4 758.33 731.81 748.25 733.49L698.52 741.55C688.44 743.23 679.03 736.17 677.35 726.09L673.99 706.27C672.64 696.19 679.36 686.78 689.78 685.1Z" fill="#accad9" opacity="1" stroke-width="4" stroke="none"></path></g><g><path d="M215.35 708.75C231.12 708.75 243.92 695.95 243.92 680.18 243.92 664.41 231.12 651.61 215.35 651.61 199.58 651.61 186.78 664.41 186.78 680.18 186.78 695.95 199.58 708.75 215.35 708.75Z" fill="#ffffff" opacity="1" stroke-width="4" stroke="none"></path></g><g><path d="M383.03 1079.49L337.24 1052.78 388.23 1058.67 388.04 1013.38 409 1056 443.64 1017.59 424.71 1065.46 460.59 1068.78 425.06 1082.96 451.42 1121.91 411.28 1095.4 397.95 1134.45 394.87 1093.51 353.15 1113.54 383.03 1079.49Z" fill="#ffffff" opacity="1" stroke-width="4" stroke="none"></path></g><g><path d="M364.77 828.51L564.68 793.61 486.09 980.33 465.48 928.39 405.44 976.34 350.9 908.06 410.94 860.11 364.77 828.51Z" fill="#ffc930" opacity="1" stroke-width="4" stroke="none"></path></g><g><path d="M1134.2 438.6C1193.33 446.57 1247.71 405.09 1255.68 345.96 1263.64 286.84 1222.16 232.45 1163.04 224.49 1103.91 216.53 1049.53 258 1041.56 317.13 1033.6 376.25 1075.08 430.64 1134.2 438.6Z" fill="#ff4f32" opacity="1" stroke-width="4" stroke="none"></path><path d="M1171.61 283.13L1164.09 338.98C1162.88 347.94 1154.7 354.19 1145.73 352.98 1136.77 351.77 1130.53 343.59 1131.74 334.62L1139.26 278.78C1140.46 269.81 1148.65 263.57 1157.61 264.78 1166.59 265.88 1172.82 274.17 1171.61 283.13Z" fill="#ffffff" opacity="1" stroke-width="4" stroke="none"></path><path d="M1139.63 398.31C1148.56 399.52 1156.78 393.25 1157.98 384.32 1159.19 375.38 1152.92 367.16 1143.99 365.96 1135.05 364.76 1126.83 371.02 1125.63 379.96 1124.43 388.89 1130.69 397.11 1139.63 398.31Z" fill="#ffffff" opacity="1" stroke-width="4" stroke="none"></path></g><g><path d="M1401.4 649.19C1369.75 649.19 1355.3 623.25 1355.17 622.99 1355.23 622.92 1359.74 619.02 1368.14 614.18 1374.79 610.35 1386.08 604.91 1399.45 600.88 1401.6 600.21 1413.9 604.1 1413.9 604.1 1413.9 604.1 1420.55 595.91 1427.54 594.97 1438.02 593.55 1447.36 593.08 1453.95 593.08 1464.16 593.08 1470.27 594.02 1470.34 594.02 1470.27 594.16 1465.03 606.52 1454.95 619.42 1445.61 631.32 1430.16 646.03 1409.46 648.72 1406.77 649.06 1404.02 649.19 1401.4 649.19Z" fill="#ffffff" opacity="1" stroke-width="4" stroke="none"></path><path d="M1406.5 641.53C1406.24 641.53 1405.97 641.53 1405.7 641.47 1398.58 640.12 1395.82 622.25 1399.45 600.88 1401.33 600.34 1403.55 599.6 1405.5 599.13 1412.55 597.32 1419.88 595.97 1427.54 594.97 1427.27 598.06 1426.73 601.35 1426.26 603.77 1422.43 624.93 1413.76 641.53 1406.5 641.53Z" fill="#000000" opacity="1" stroke-width="4" stroke="none"></path><path d="M1300.74 630.92C1291.87 630.92 1283 628.56 1274.4 623.99 1255.98 614.12 1246.71 594.9 1242.21 580.52 1237.3 564.93 1236.77 551.49 1236.77 551.35 1236.97 551.42 1253.77 555.05 1276.21 567.28 1282.39 570.64 1284.34 582.74 1284.34 582.74 1284.34 582.74 1299.39 581.93 1301.01 583.21 1324.12 600.88 1334.07 618.95 1334.13 619.16 1334.13 619.36 1320.56 630.92 1300.74 630.92 1300.8 630.92 1300.8 630.92 1300.74 630.92Z" fill="#ffffff" opacity="1" stroke-width="4" stroke="none"></path><path d="M1281.39 618.62C1281.12 618.62 1280.78 618.62 1280.51 618.55 1273.19 617.21 1270.57 598.12 1274.6 576.02 1275.07 573.19 1275.4 570.3 1276.21 567.28 1282.93 570.91 1289.78 575.01 1295.97 579.38 1297.58 580.52 1299.53 582.06 1301.07 583.27 1297.04 603.7 1288.37 618.62 1281.39 618.62Z" fill="#000000" opacity="1" stroke-width="4" stroke="none"></path></g></svg>